<svg width="1040" height="732" viewBox="0 0 1040 732" fill="none" xmlns="http://www.w3.org/2000/svg">
<path fill-rule="evenodd" clip-rule="evenodd" d="M519.726 36.8657C451.692 36.8657 384.311 47.3958 321.425 67.8661C258.539 88.3361 201.354 118.354 153.148 156.237C104.941 194.121 66.6419 239.142 40.4892 288.759C14.3338 338.382 0.850594 391.612 0.8506 445.4L0.460144 445.4V727.4V731.4H4.46014H1034.99H1038.99V727.4V445.4L1038.6 445.4C1038.6 391.612 1025.12 338.382 998.962 288.759C972.809 239.142 934.51 194.121 886.304 156.237C838.098 118.354 780.912 88.3361 718.026 67.8661C655.14 47.3958 587.759 36.8657 519.726 36.8657ZM4.46014 445.4V723.4V727.4H8.46014H1030.99H1034.99V723.4V445.4C1034.99 392.225 1021.66 339.57 995.769 290.442C969.874 241.314 931.92 196.676 884.073 159.075C836.227 121.474 779.424 91.6477 716.909 71.2983C654.394 50.949 587.391 40.4753 519.726 40.4753C452.06 40.4753 385.057 50.949 322.542 71.2984C260.027 91.6477 203.225 121.474 155.378 159.075C107.531 196.676 69.5769 241.314 43.6824 290.442C17.7879 339.57 4.46014 392.225 4.46014 445.4Z" fill="#308CF8"/>
<path d="M800.088 730L634.479 579.982M1039 688.433L731.31 566M242.627 730L414.571 579.982M1 688.433L315.024 566M1039 700.147H1M1 677.097H1039M1 650.267H1039M1 630.995H1039M1 615.124H1039M1 597.742H1039M1 584.138H1039" stroke="url(#paint0_linear_97_814)" stroke-width="2.70716"/>
<g filter="url(#filter0_d_97_814)">
<path d="M192.357 66.3772C212.597 77.0265 224.224 99.2866 227.507 109.086C194.335 109.853 183.121 95.0273 173.758 88.2337C164.395 81.4401 153.459 56.951 149.614 42.7999C155.428 46.2218 172.117 55.7279 192.357 66.3772Z" fill="#E3EC80"/>
<path d="M192.357 66.3772C212.597 77.0265 224.224 99.2866 227.507 109.086C194.335 109.853 183.121 95.0273 173.758 88.2337C164.395 81.4401 153.459 56.951 149.614 42.7999C155.428 46.2218 172.117 55.7279 192.357 66.3772Z" stroke="black" stroke-width="1.29183"/>
</g>
<g filter="url(#filter1_d_97_814)">
<path d="M174.787 106.433C196.73 99.9846 220.574 107.867 229.754 112.614C206.478 136.262 188.105 133.429 176.655 135.071C165.204 136.714 140.304 126.75 127.691 119.27C134.247 117.678 152.845 112.881 174.787 106.433Z" fill="#F19BFF"/>
<path d="M174.787 106.433C196.73 99.9846 220.574 107.867 229.754 112.614C206.478 136.262 188.105 133.429 176.655 135.071C165.204 136.714 140.304 126.75 127.691 119.27C134.247 117.678 152.845 112.881 174.787 106.433Z" stroke="black" stroke-width="1.29183"/>
</g>
<g filter="url(#filter2_d_97_814)">
<path d="M195.01 151.225C203.378 129.941 224.231 115.945 233.611 111.608C238.008 144.497 224.499 157.268 218.772 167.319C213.045 177.369 189.901 190.921 176.256 196.293C179.021 190.139 186.642 172.509 195.01 151.225Z" fill="#308CF8"/>
<path d="M195.01 151.225C203.378 129.941 224.231 115.945 233.611 111.608C238.008 144.497 224.499 157.268 218.772 167.319C213.045 177.369 189.901 190.921 176.256 196.293C179.021 190.139 186.642 172.509 195.01 151.225Z" stroke="black" stroke-width="1.29183"/>
</g>
<g filter="url(#filter3_d_97_814)">
<path d="M228.475 173.688C222.688 151.562 231.282 127.965 236.303 118.932C259.242 142.907 255.858 161.186 257.156 172.681C258.454 184.176 247.748 208.766 239.892 221.149C238.498 214.548 234.261 195.814 228.475 173.688Z" fill="#F480E5"/>
<path d="M228.475 173.688C222.688 151.562 231.282 127.965 236.303 118.932C259.242 142.907 255.858 161.186 257.156 172.681C258.454 184.176 247.748 208.766 239.892 221.149C238.498 214.548 234.261 195.814 228.475 173.688Z" stroke="black" stroke-width="1.29183"/>
</g>
<g filter="url(#filter4_d_97_814)">
<path d="M278.132 162.875C257.032 154.051 243.488 132.903 239.353 123.432C272.329 119.742 284.807 133.522 294.732 139.464C304.657 145.406 317.709 168.835 322.787 182.592C316.694 179.696 299.232 171.699 278.132 162.875Z" fill="#F78166"/>
<path d="M278.132 162.875C257.032 154.051 243.488 132.903 239.353 123.432C272.329 119.742 284.807 133.522 294.732 139.464C304.657 145.406 317.709 168.835 322.787 182.592C316.694 179.696 299.232 171.699 278.132 162.875Z" stroke="black" stroke-width="1.29183"/>
</g>
<g filter="url(#filter5_d_97_814)">
<path d="M216.23 49.8319C211.223 72.1476 220.641 95.4287 225.975 104.28C248.058 79.5146 244.035 61.3652 244.929 49.8319C245.823 38.2986 234.26 14.0995 225.975 2C224.813 8.64581 221.237 27.5163 216.23 49.8319Z" fill="#C4D4F8"/>
<path d="M216.23 49.8319C211.223 72.1476 220.641 95.4287 225.975 104.28C248.058 79.5146 244.035 61.3652 244.929 49.8319C245.823 38.2986 234.26 14.0995 225.975 2C224.813 8.64581 221.237 27.5163 216.23 49.8319Z" stroke="black" stroke-width="1.29183"/>
</g>
<g filter="url(#filter6_d_97_814)">
<path d="M256.485 59.9304C242.3 77.8701 240.695 102.933 241.665 113.221C272.301 100.476 276.543 82.3768 282.348 72.3709C288.153 62.3651 288.223 35.5454 286.002 21.0504C282.073 26.5355 270.671 41.9907 256.485 59.9304Z" fill="#8AEC80"/>
<path d="M256.485 59.9304C242.3 77.8701 240.695 102.933 241.665 113.221C272.301 100.476 276.543 82.3768 282.348 72.3709C288.153 62.3651 288.223 35.5454 286.002 21.0504C282.073 26.5355 270.671 41.9907 256.485 59.9304Z" stroke="black" stroke-width="1.29183"/>
</g>
<g filter="url(#filter7_d_97_814)">
<path d="M296.93 87.5777C274.257 90.5778 255.655 107.449 249.187 115.51C280.051 127.693 295.698 117.655 306.831 114.515C317.965 111.375 336.689 92.1722 345.187 80.2215C338.548 81.4235 319.602 84.5776 296.93 87.5777Z" fill="#FFD503"/>
<path d="M296.93 87.5777C274.257 90.5778 255.655 107.449 249.187 115.51C280.051 127.693 295.698 117.655 306.831 114.515C317.965 111.375 336.689 92.1722 345.187 80.2215C338.548 81.4235 319.602 84.5776 296.93 87.5777Z" stroke="black" stroke-width="1.29183"/>
</g>
<g filter="url(#filter8_d_97_814)">
<circle cx="238.062" cy="106.639" r="20.6693" fill="#A96600"/>
<circle cx="238.062" cy="106.639" r="20.0234" stroke="black" stroke-width="1.29183"/>
</g>
<line x1="-0.000395222" y1="728" x2="1039" y2="727.795" stroke="#308CF8" stroke-width="4"/>
<defs>
<filter id="filter0_d_97_814" x="148.575" y="41.439" width="82.4072" height="73.4886" filterUnits="userSpaceOnUse" color-interpolation-filters="sRGB">
<feFlood flood-opacity="0" result="BackgroundImageFix"/>
<feColorMatrix in="SourceAlpha" type="matrix" values="0 0 0 0 0 0 0 0 0 0 0 0 0 0 0 0 0 0 127 0" result="hardAlpha"/>
<feOffset dx="2.58367" dy="5.16733"/>
<feComposite in2="hardAlpha" operator="out"/>
<feColorMatrix type="matrix" values="0 0 0 0 0 0 0 0 0 0 0 0 0 0 0 0 0 0 1 0"/>
<feBlend mode="normal" in2="BackgroundImageFix" result="effect1_dropShadow_97_814"/>
<feBlend mode="normal" in="SourceGraphic" in2="effect1_dropShadow_97_814" result="shape"/>
</filter>
<filter id="filter1_d_97_814" x="125.997" y="103.354" width="107.415" height="37.7103" filterUnits="userSpaceOnUse" color-interpolation-filters="sRGB">
<feFlood flood-opacity="0" result="BackgroundImageFix"/>
<feColorMatrix in="SourceAlpha" type="matrix" values="0 0 0 0 0 0 0 0 0 0 0 0 0 0 0 0 0 0 127 0" result="hardAlpha"/>
<feOffset dx="2.58367" dy="5.16733"/>
<feComposite in2="hardAlpha" operator="out"/>
<feColorMatrix type="matrix" values="0 0 0 0 0 0 0 0 0 0 0 0 0 0 0 0 0 0 1 0"/>
<feBlend mode="normal" in2="BackgroundImageFix" result="effect1_dropShadow_97_814"/>
<feBlend mode="normal" in="SourceGraphic" in2="effect1_dropShadow_97_814" result="shape"/>
</filter>
<filter id="filter2_d_97_814" x="175.017" y="110.654" width="62.6885" height="91.9886" filterUnits="userSpaceOnUse" color-interpolation-filters="sRGB">
<feFlood flood-opacity="0" result="BackgroundImageFix"/>
<feColorMatrix in="SourceAlpha" type="matrix" values="0 0 0 0 0 0 0 0 0 0 0 0 0 0 0 0 0 0 127 0" result="hardAlpha"/>
<feOffset dx="2.58367" dy="5.16733"/>
<feComposite in2="hardAlpha" operator="out"/>
<feColorMatrix type="matrix" values="0 0 0 0 0 0 0 0 0 0 0 0 0 0 0 0 0 0 1 0"/>
<feBlend mode="normal" in2="BackgroundImageFix" result="effect1_dropShadow_97_814"/>
<feBlend mode="normal" in="SourceGraphic" in2="effect1_dropShadow_97_814" result="shape"/>
</filter>
<filter id="filter3_d_97_814" x="225.899" y="117.852" width="34.5948" height="110.149" filterUnits="userSpaceOnUse" color-interpolation-filters="sRGB">
<feFlood flood-opacity="0" result="BackgroundImageFix"/>
<feColorMatrix in="SourceAlpha" type="matrix" values="0 0 0 0 0 0 0 0 0 0 0 0 0 0 0 0 0 0 127 0" result="hardAlpha"/>
<feOffset dx="2.58367" dy="5.16733"/>
<feComposite in2="hardAlpha" operator="out"/>
<feColorMatrix type="matrix" values="0 0 0 0 0 0 0 0 0 0 0 0 0 0 0 0 0 0 1 0"/>
<feBlend mode="normal" in2="BackgroundImageFix" result="effect1_dropShadow_97_814"/>
<feBlend mode="normal" in="SourceGraphic" in2="effect1_dropShadow_97_814" result="shape"/>
</filter>
<filter id="filter4_d_97_814" x="238.411" y="122.167" width="88.1152" height="66.8563" filterUnits="userSpaceOnUse" color-interpolation-filters="sRGB">
<feFlood flood-opacity="0" result="BackgroundImageFix"/>
<feColorMatrix in="SourceAlpha" type="matrix" values="0 0 0 0 0 0 0 0 0 0 0 0 0 0 0 0 0 0 127 0" result="hardAlpha"/>
<feOffset dx="2.58367" dy="5.16733"/>
<feComposite in2="hardAlpha" operator="out"/>
<feColorMatrix type="matrix" values="0 0 0 0 0 0 0 0 0 0 0 0 0 0 0 0 0 0 1 0"/>
<feBlend mode="normal" in2="BackgroundImageFix" result="effect1_dropShadow_97_814"/>
<feBlend mode="normal" in="SourceGraphic" in2="effect1_dropShadow_97_814" result="shape"/>
</filter>
<filter id="filter5_d_97_814" x="214.163" y="0.32666" width="34.0448" height="110.204" filterUnits="userSpaceOnUse" color-interpolation-filters="sRGB">
<feFlood flood-opacity="0" result="BackgroundImageFix"/>
<feColorMatrix in="SourceAlpha" type="matrix" values="0 0 0 0 0 0 0 0 0 0 0 0 0 0 0 0 0 0 127 0" result="hardAlpha"/>
<feOffset dx="2.58367" dy="5.16733"/>
<feComposite in2="hardAlpha" operator="out"/>
<feColorMatrix type="matrix" values="0 0 0 0 0 0 0 0 0 0 0 0 0 0 0 0 0 0 1 0"/>
<feBlend mode="normal" in2="BackgroundImageFix" result="effect1_dropShadow_97_814"/>
<feBlend mode="normal" in="SourceGraphic" in2="effect1_dropShadow_97_814" result="shape"/>
</filter>
<filter id="filter6_d_97_814" x="240.79" y="19.3848" width="49.7918" height="99.9369" filterUnits="userSpaceOnUse" color-interpolation-filters="sRGB">
<feFlood flood-opacity="0" result="BackgroundImageFix"/>
<feColorMatrix in="SourceAlpha" type="matrix" values="0 0 0 0 0 0 0 0 0 0 0 0 0 0 0 0 0 0 127 0" result="hardAlpha"/>
<feOffset dx="2.58367" dy="5.16733"/>
<feComposite in2="hardAlpha" operator="out"/>
<feColorMatrix type="matrix" values="0 0 0 0 0 0 0 0 0 0 0 0 0 0 0 0 0 0 1 0"/>
<feBlend mode="normal" in2="BackgroundImageFix" result="effect1_dropShadow_97_814"/>
<feBlend mode="normal" in="SourceGraphic" in2="effect1_dropShadow_97_814" result="shape"/>
</filter>
<filter id="filter7_d_97_814" x="248.135" y="79.3032" width="101.081" height="47.8968" filterUnits="userSpaceOnUse" color-interpolation-filters="sRGB">
<feFlood flood-opacity="0" result="BackgroundImageFix"/>
<feColorMatrix in="SourceAlpha" type="matrix" values="0 0 0 0 0 0 0 0 0 0 0 0 0 0 0 0 0 0 127 0" result="hardAlpha"/>
<feOffset dx="2.58367" dy="5.16733"/>
<feComposite in2="hardAlpha" operator="out"/>
<feColorMatrix type="matrix" values="0 0 0 0 0 0 0 0 0 0 0 0 0 0 0 0 0 0 1 0"/>
<feBlend mode="normal" in2="BackgroundImageFix" result="effect1_dropShadow_97_814"/>
<feBlend mode="normal" in="SourceGraphic" in2="effect1_dropShadow_97_814" result="shape"/>
</filter>
<filter id="filter8_d_97_814" x="217.393" y="85.9692" width="43.9224" height="45.2144" filterUnits="userSpaceOnUse" color-interpolation-filters="sRGB">
<feFlood flood-opacity="0" result="BackgroundImageFix"/>
<feColorMatrix in="SourceAlpha" type="matrix" values="0 0 0 0 0 0 0 0 0 0 0 0 0 0 0 0 0 0 127 0" result="hardAlpha"/>
<feOffset dx="2.58367" dy="3.8755"/>
<feComposite in2="hardAlpha" operator="out"/>
<feColorMatrix type="matrix" values="0 0 0 0 0 0 0 0 0 0 0 0 0 0 0 0 0 0 1 0"/>
<feBlend mode="normal" in2="BackgroundImageFix" result="effect1_dropShadow_97_814"/>
<feBlend mode="normal" in="SourceGraphic" in2="effect1_dropShadow_97_814" result="shape"/>
</filter>
<linearGradient id="paint0_linear_97_814" x1="520" y1="566" x2="520" y2="730" gradientUnits="userSpaceOnUse">
<stop stop-color="#308CF8"/>
<stop offset="1" stop-color="#308CF8"/>
</linearGradient>
</defs>
</svg>
